<svg xmlns:svg="http://www.w3.org/2000/svg" xmlns="http://www.w3.org/2000/svg" version="1.1" height="48" width="48">
<style>
.tcline {
  fill:none;
  stroke-linecap:square;
  stroke-width:0.8;
  stroke:#00d8ff;
}
.tcback {
  fill: #222;
  stroke-linecap:square;
  stroke-width:1.5;
  stroke:#00d8ff;
}
.tcdot {
  fill:#00d8ff;
}
.tccenter {
  fill:#00d8ff;
  stroke-width:0.4;
  stroke:#00d8ff;
}
</style>
<g transform="translate(-1.9440769e-6,-1004.3622)" display="none">
    <rect y="1004.36" x="0" height="48" width="48" fill="#222"/>
  </g>
  <g transform="translate(-1.9440769e-6,6.5019521e-6)">
    <g transform="matrix(1.4033574,0,0,1.4033574,-67.29375,-277.7976)">
      <path transform="translate(-137.70905,48.967145)" d="m219.11 166.09a16.35 16.35 0 0 1-16.35 16.35 16.35 16.35 0 0 1-16.35-16.35 16.35 16.35 0 0 1 16.35-16.35 16.35 16.35 0 0 1 16.35 16.35z" class="tcback"/>
      <path transform="matrix(1.0315353,0,0,-1.0315353,57.985618,234.91726)" d="m9.64 19.38a2.81 2.81 0 0 1-2.81 2.81 2.81 2.81 0 0 1-2.81-2.81 2.81 2.81 0 0 1 2.81-2.81 2.81 2.81 0 0 1 2.81 2.81z" class="tccenter"/>
      <path transform="matrix(0.71552563,0,0,-0.71552563,52.262863,226.97096)" d="m9.64 19.38a2.81 2.81 0 0 1-2.81 2.81 2.81 2.81 0 0 1-2.81-2.81 2.81 2.81 0 0 1 2.81-2.81 2.81 2.81 0 0 1 2.81 2.81zM9.64 19.38" class="tcdot"/>
      <path transform="matrix(0.71552563,0,0,-0.71552563,51.328161,220.34011)" d="m9.64 19.38a2.81 2.81 0 0 1-2.81 2.81 2.81 2.81 0 0 1-2.81-2.81 2.81 2.81 0 0 1 2.81-2.81 2.81 2.81 0 0 1 2.81 2.81z" class="tcdot"/>
      <path transform="matrix(0.71552563,0,0,-0.71552563,47.724966,231.19295)" d="m9.64 19.38a2.81 2.81 0 0 1-2.81 2.81 2.81 2.81 0 0 1-2.81-2.81 2.81 2.81 0 0 1 2.81-2.81 2.81 2.81 0 0 1 2.81 2.81zM9.64 19.38" class="tcdot"/>
      <path transform="matrix(0.71552563,0,0,-0.71552563,69.309613,228.20466)" d="m9.64 19.38a2.81 2.81 0 0 1-2.81 2.81 2.81 2.81 0 0 1-2.81-2.81 2.81 2.81 0 0 1 2.81-2.81 2.81 2.81 0 0 1 2.81 2.81z" class="tcdot"/>
      <path transform="matrix(0.71552563,0,0,-0.71552563,71.646425,223.92149)" d="m9.64 19.38a2.81 2.81 0 0 1-2.81 2.81 2.81 2.81 0 0 1-2.81-2.81 2.81 2.81 0 0 1 2.81-2.81 2.81 2.81 0 0 1 2.81 2.81z" class="tcdot"/>
      <path transform="matrix(0.71552563,0,0,-0.71552563,57.178213,222.02154)" d="m9.64 19.38a2.81 2.81 0 0 1-2.81 2.81 2.81 2.81 0 0 1-2.81-2.81 2.81 2.81 0 0 1 2.81-2.81 2.81 2.81 0 0 1 2.81 2.81z" class="tcdot"/>
      <path transform="matrix(0.71552563,0,0,-0.71552563,62.049455,217.56562)" d="m9.64 19.38a2.81 2.81 0 0 1-2.81 2.81 2.81 2.81 0 0 1-2.81-2.81 2.81 2.81 0 0 1 2.81-2.81 2.81 2.81 0 0 1 2.81 2.81z" class="tcdot"/>
      <path transform="matrix(0.71552563,0,0,-0.71552563,65.611491,222.0146)" d="m9.64 19.38a2.81 2.81 0 0 1-2.81 2.81 2.81 2.81 0 0 1-2.81-2.81 2.81 2.81 0 0 1 2.81-2.81 2.81 2.81 0 0 1 2.81 2.81z" class="tcdot"/>
      <path transform="matrix(0.71552563,0,0,-0.71552563,52.427863,233.84493)" d="m9.64 19.38a2.81 2.81 0 0 1-2.81 2.81 2.81 2.81 0 0 1-2.81-2.81 2.81 2.81 0 0 1 2.81-2.81 2.81 2.81 0 0 1 2.81 2.81zM9.64 19.38" class="tcdot"/>
      <path transform="matrix(0.71552563,0,0,-0.71552563,53.629415,239.31635)" d="m9.64 19.38a2.81 2.81 0 0 1-2.81 2.81 2.81 2.81 0 0 1-2.81-2.81 2.81 2.81 0 0 1 2.81-2.81 2.81 2.81 0 0 1 2.81 2.81z" class="tcdot"/>
      <path transform="matrix(0.71552563,0,0,-0.71552563,59.213593,237.21595)" d="m9.64 19.38a2.81 2.81 0 0 1-2.81 2.81 2.81 2.81 0 0 1-2.81-2.81 2.81 2.81 0 0 1 2.81-2.81 2.81 2.81 0 0 1 2.81 2.81z" class="tcdot"/>
      <path transform="matrix(0.71552563,0,0,-0.71552563,71.87204,232.7834)" d="m9.64 19.38a2.81 2.81 0 0 1-2.81 2.81 2.81 2.81 0 0 1-2.81-2.81 2.81 2.81 0 0 1 2.81-2.81 2.81 2.81 0 0 1 2.81 2.81z" class="tcdot"/>
      <path transform="matrix(0.71552563,0,0,-0.71552563,64.378686,239.852)" d="m9.64 19.38a2.81 2.81 0 0 1-2.81 2.81 2.81 2.81 0 0 1-2.81-2.81 2.81 2.81 0 0 1 2.81-2.81 2.81 2.81 0 0 1 2.81 2.81zM9.64 19.38" class="tcdot"/>
      <path transform="matrix(0.71552563,0,0,-0.71552563,66.118888,234.38104)" d="m9.64 19.38a2.81 2.81 0 0 1-2.81 2.81 2.81 2.81 0 0 1-2.81-2.81 2.81 2.81 0 0 1 2.81-2.81 2.81 2.81 0 0 1 2.81 2.81z" class="tcdot"/>

      <path d="m65.52 212.06 1.08-6.38M63.87 212.26l-0.99-2.27" class="tcline"/>
      <path d="m63.87 212.26-0.99-2.27" class="tcline"/>
      <path d="m62.94 212.91-5.27-5.05" class="tcline"/>
      <path d="m59.11 213.55 3.09 0.71" class="tcline"/>
      <path d="m62.18 215.47-7.59 1.47" class="tcline"/>
      <path d="m67.93 214.74 4.26-0.27" class="tcline"/>
      <path d="m74.68 210.84-6.98 2.95" class="tcline"/>
      <path d="m69.24 209.71-2.38 2.95" class="tcline"/>
      <path d="m62.6 216.51-3.61 2.36M63.5 217.39l-3.93 6.35" class="tcline"/>
      <path d="m63.5 217.39-3.93 6.35" class="tcline"/>
      <path d="m64.71 217.81-0.39 3.54" class="tcline"/>
      <path d="m67.78 215.86 7.08 2.41" class="tcline"/>
      <path d="m67.15 216.9 2.39 2.23M66.07 217.63l2.48 6.47" class="tcline"/>
      <path d="m66.07 217.63 2.48 6.47" class="tcline"/>
    </g>
  </g>
</svg>
