<svg xmlns:svg="http://www.w3.org/2000/svg" xmlns="http://www.w3.org/2000/svg" version="1.1" height="48" width="48">
<style>
.tcline {
  stroke: #000;
  stroke-width: 1.3;
}
.tcback {
  fill: #fff;
  stroke: #000;
  stroke-width: 2;
}
.tcdot {
  fill: #000;
  stroke: #000;
  stroke-width: 0.4;
}
.tccenter {
  fill: #000;
  stroke: #000;
  stroke-width: 1.0;
}

@keyframes spin {
  0% {
      transform: rotate(0deg);
  }
  100% {
      transform: rotate(360deg);
  }
}
.spin {
  animation: spin 3s infinite linear;
}
</style>
<g transform="translate(24 24)">
  <g class="spin">
    <circle cx="0" cy="0" r="23" class="tcback" />

    <!-- These are roughly in clockwise order starting from the northwest -->
    <line x1="0" y1="0" x2="-13" y2="-13" class="tcline" />
    <circle cx="-13" cy="-13" r="2.5" class="tcdot" />

    <line x1="0" y1="0" x2="-3" y2="-9" class="tcline" />
    <circle cx="-3" cy="-9" r="2.5" class="tcdot" />

    <line x1="0" y1="0" x2="3" y2="-17" class="tcline" />
    <circle cx="3" cy="-17" r="2.5" class="tcdot" />

    <line x1="0" y1="0" x2="8" y2="-9" class="tcline" />
    <circle cx="8" cy="-9" r="2.5" class="tcdot" />

    <line x1="0" y1="0" x2="16" y2="-7" class="tcline" />
    <circle cx="16" cy="-7" r="2.5" class="tcdot" />

    <line x1="0" y1="0" x2="13" y2="-1" class="tcline" />
    <circle cx="13" cy="-1" r="2.5" class="tcdot" />

    <line x1="0" y1="0" x2="15" y2="5" class="tcline" />
    <circle cx="15" cy="5" r="2.5" class="tcdot" />

    <line x1="0" y1="0" x2="8" y2="8" class="tcline" />
    <circle cx="8" cy="8" r="2.5" class="tcdot" />

    <line x1="0" y1="0" x2="7" y2="16" class="tcline" />
    <circle cx="7" cy="16" r="2.5" class="tcdot" />

    <line x1="0" y1="0" x2="-1" y2="14" class="tcline" />
    <circle cx="-1" cy="14" r="2.5" class="tcdot" />

    <line x1="0" y1="0" x2="-8" y2="15" class="tcline" />
    <circle cx="-8" cy="15" r="2.5" class="tcdot" />

    <line x1="0" y1="0" x2="-10" y2="7" class="tcline" />
    <circle cx="-10" cy="7" r="2.5" class="tcdot" />

    <line x1="0" y1="0" x2="-17" y2="3" class="tcline" />
    <circle cx="-17" cy="3" r="2.5" class="tcdot" />

    <line x1="0" y1="0" x2="-10" y2="-4" class="tcline" />
    <circle cx="-10" cy="-4" r="2.5" class="tcdot" />


    <!-- The center dot -->
    <circle cx="0" cy="0" r="4" class="tccenter" />
  </g>
</g>
</svg>
